<?xml version="1.0" encoding="utf-8"?>
<!-- Svg Vector Icons : http://www.onlinewebfonts.com/icon -->
<!DOCTYPE svg PUBLIC "-//W3C//DTD SVG 1.1//EN" "http://www.w3.org/Graphics/SVG/1.1/DTD/svg11.dtd">
<svg version="1.1" xmlns="http://www.w3.org/2000/svg" xmlns:xlink="http://www.w3.org/1999/xlink" x="0px" y="0px" viewBox="0 0 256 256" enable-background="new 0 0 256 256" xml:space="preserve">
<metadata> Svg Vector Icons : http://www.onlinewebfonts.com/icon </metadata>
<g><g><path fill="#000000" d="M208.3,9.8c-0.6,0-1.2,0-1.8,0H49.4c-0.6,0-1.2,0-1.8,0C26.9,9.8,10,26.7,10,47.4c0,0.1,0,0.1,0,0.2h0v160.9h0c0,0.1,0,0.2,0,0.4c0,20.6,16.7,37.2,37.2,37.2c0.7,0,1.3,0,2-0.1h156.5c0.8,0.1,1.7,0.1,2.7,0.1c20.6,0,37.2-16.7,37.2-37.2c0-0.1,0-0.3,0-0.5h0.2V49.8c0.1-0.7,0.1-1.5,0.1-2.3C246,26.7,229.1,9.8,208.3,9.8z M225.6,206.8c-0.2,0.7-0.3,1.4-0.3,2c0,9.1-7.1,16.4-16,16.9l0,0h-161c-0.3,0-0.6,0-0.8,0c-9.4,0-17-7.6-17-17c0-0.4,0-0.9-0.1-1.3V84.3h195.3L225.6,206.8L225.6,206.8z M225.6,64.1H30.3V49.7c0.2-0.7,0.3-1.4,0.3-2.1c0-9.5,7.7-17.1,17.1-17.1c0.2,0,0.4,0,0.6,0h159c0.3,0,0.6,0.1,0.9,0.1c9.5,0,17.1,7.7,17.1,17.1c0,0.6,0.1,1.2,0.2,1.8L225.6,64.1L225.6,64.1z M74.6,163l29.9,29.9c1.8,3,5.1,5.1,8.8,5.1c3.9,0,7.3-2.2,9-5.4l59.1-59.1c2.3-1.9,3.8-4.7,3.8-7.9c0-5.7-4.6-10.3-10.3-10.3c-2.7,0-5.1,1-7,2.7c-0.6,0.5-1.1,1.1-1.5,1.8l-53.1,53.1l-25.3-25.3l-0.1,0.1c-1.9-1.9-4.4-3-7.2-3c-5.7,0-10.3,4.6-10.3,10.3C70.5,158.2,72.1,161.2,74.6,163z"/></g></g>
</svg>